<svg xmlns="http://www.w3.org/2000/svg" width="256" height="256" viewBox="0 0 256 256">
  <defs>
    <linearGradient id="bg" x1="0" y1="0" x2="1" y2="1">
      <stop offset="0" stop-color="#1f3b57" />
      <stop offset="1" stop-color="#0f172a" />
    </linearGradient>
  </defs>
  <rect width="256" height="256" rx="48" fill="url(#bg)" />
  <g transform="translate(32 48)">
    <text x="0" y="116" font-family="'Helvetica Neue', Arial, sans-serif" font-size="96" font-weight="700" fill="#e0f2fe">MR</text>
    <text x="140" y="116" font-family="'Helvetica Neue', Arial, sans-serif" font-size="96" font-weight="600" fill="#38bdf8">G</text>
    <g transform="translate(150 18) scale(0.9)" fill="none" stroke="#38bdf8" stroke-width="8" stroke-linecap="round" stroke-linejoin="round">
      <path d="M12 24h36" />
      <path d="M18 24v-6a6 6 0 0 1 6-6h12a6 6 0 0 1 6 6v6" />
      <path d="M18 24v30a6 6 0 0 0 6 6h12a6 6 0 0 0 6-6V24" />
      <path d="M24 36v12" />
      <path d="M36 36v12" />
    </g>
  </g>
</svg>
